<svg width="24" height="20" viewBox="0 0 24 20" fill="none" xmlns="http://www.w3.org/2000/svg">
<path d="M2.4 19.5C1.74 19.5 1.1752 19.2676 0.7056 18.8029C0.236 18.3382 0.0008 17.7789 0 17.125V2.875C0 2.22187 0.2352 1.66296 0.7056 1.19825C1.176 0.733541 1.7408 0.500792 2.4 0.5H21.6C22.26 0.5 22.8252 0.73275 23.2956 1.19825C23.766 1.66375 24.0008 2.22267 24 2.875V17.125C24 17.7781 23.7652 18.3374 23.2956 18.8029C22.826 19.2684 22.2608 19.5008 21.6 19.5H2.4ZM12 11.1875L2.4 5.25V17.125H21.6V5.25L12 11.1875ZM12 8.8125L21.6 2.875H2.4L12 8.8125ZM2.4 5.25V2.875V17.125V5.25Z" fill="#181925"/>
</svg>
