<svg width="28" height="32" viewBox="0 0 28 32" fill="none" xmlns="http://www.w3.org/2000/svg">
<path fill-rule="evenodd" clip-rule="evenodd" d="M11.4361 0L13.3785 1.16252C15.842 2.61516 17.7346 4.86326 18.743 7.53484C19.0853 6.76598 19.4922 6.02018 19.8699 5.2667L21.3822 6.7752C24.7766 10.1613 28 15.2358 28 20.1642C28 26.7733 23.9149 30.9636 17.3788 31.6878L15.236 31.9247L15.7047 29.8257C16.07 28.1834 16.1363 27.11 16.0592 26.3581C15.9667 25.4124 15.5166 24.6697 14.9555 23.9316C14.419 23.2242 13.8872 22.5153 13.4617 21.7326C11.7121 23.112 11.0338 24.3575 10.8164 25.3832C10.539 26.6964 10.9321 28.0388 11.6504 29.472L12.9176 32L10.1027 31.6878C6.1317 31.2481 2.21926 28.6016 0.677724 24.7404C-0.933187 20.7008 0.206012 15.8124 5.41025 11.313C8.86331 8.3283 10.6916 4.45786 11.4361 0ZM13.4895 5.07448C12.3148 8.36521 10.0595 11.3638 7.42813 13.6381C2.94071 17.5177 2.53836 21.0868 3.54345 23.6025C4.2911 25.4785 5.90509 27.0209 7.81814 27.8958C7.59464 26.8596 7.58834 25.7884 7.79964 24.7496C8.30219 22.3723 10.0164 20.1442 13.3091 18.0913L14.9694 17.0564L15.5891 18.9094C16.1317 20.5332 17.257 21.6819 18.1372 23.1073C19.1053 24.6758 19.2903 26.475 19.093 28.271C23.1318 27.2638 24.9169 24.2084 24.9169 20.1642C24.9169 16.7473 22.8512 13.3951 20.801 10.7748C19.9562 12.6631 18.1758 13.3274 16.4384 14.1947V11.7067C16.4384 9.60154 15.5798 7.03508 13.4895 5.07602V5.07448Z" fill="black"/>
</svg>
