<svg width="26" height="32" viewBox="0 0 26 32" fill="none" xmlns="http://www.w3.org/2000/svg">
<path d="M12.9951 0.5C16.2983 0.5 19.2047 1.66923 21.7334 4.0293C24.2338 6.36285 25.4999 9.497 25.5 13.4873C25.5 15.1294 25.1434 16.7669 24.4219 18.4023C23.6894 20.0629 22.7705 21.6523 21.665 23.1709C20.5536 24.6977 19.3457 26.1232 18.042 27.4463C16.7264 28.7817 15.4988 29.9637 14.3594 30.9932L14.3535 30.998L14.3486 31.0039C14.1714 31.1739 13.9672 31.2965 13.7314 31.374C13.4711 31.4597 13.2217 31.5 12.9824 31.5C12.7434 31.5 12.4993 31.4595 12.249 31.375C12.0228 31.2986 11.8271 31.1772 11.6572 31.0088L11.6484 31.001L11.6396 30.9922L10.7646 30.1914C9.87376 29.3623 8.9347 28.4476 7.94824 27.4463C6.64454 26.1232 5.43662 24.6977 4.3252 23.1709C3.21997 21.6526 2.30338 20.0634 1.57422 18.4033C0.855725 16.7677 0.5 15.1298 0.5 13.4873C0.500082 9.49668 1.76522 6.36282 4.2627 4.0293C6.7881 1.66944 9.69199 0.500024 12.9951 0.5ZM12.9951 2.26465C9.98283 2.26465 7.42009 3.31748 5.33887 5.41699C3.24989 7.52438 2.2159 10.229 2.21582 13.4873C2.21582 15.6968 3.12761 18.1262 4.87109 20.7607C6.61509 23.3959 9.21409 26.3364 12.6523 29.5811L12.9912 29.9014L13.334 29.585C16.8529 26.3463 19.4757 23.4044 21.1826 20.7607C22.8855 18.1229 23.7744 15.6935 23.7744 13.4873C23.7743 10.2289 22.7404 7.52439 20.6514 5.41699C18.5697 3.31759 16.0073 2.26472 12.9951 2.26465ZM12.9912 10.7852C13.6512 10.7852 14.2006 11.0143 14.667 11.4854C15.1327 11.9558 15.3623 12.5141 15.3623 13.1895C15.3623 13.8654 15.1335 14.4238 14.6699 14.8936C14.2067 15.3628 13.6591 15.5917 12.999 15.5918C12.4208 15.5918 11.9295 15.417 11.5059 15.0605L11.3281 14.8965C10.8663 14.4297 10.6378 13.8733 10.6377 13.1973C10.6377 12.6047 10.8121 12.1006 11.165 11.667L11.3271 11.4863C11.7873 11.015 12.3322 10.7853 12.9912 10.7852Z" fill="#8D99AE" stroke="#8D99AE"/>
</svg>
