<svg width="32" height="31" viewBox="0 0 32 31" fill="none" xmlns="http://www.w3.org/2000/svg">
<path d="M2.68457 0.5H29.3066C29.922 0.500082 30.4297 0.711123 30.8594 1.1416C31.2891 1.57218 31.5 2.0817 31.5 2.69922V23.042C31.4999 23.5725 31.3397 24.0264 31.0107 24.4219L30.8594 24.5879C30.4296 25.0198 29.9215 25.2314 29.3066 25.2314H19.9287L19.7812 25.4541L16.6963 30.0947L16.6934 30.0996C16.6022 30.2395 16.4968 30.3354 16.3789 30.4004C16.2564 30.4679 16.1309 30.5 15.9951 30.5C15.8561 30.5 15.7291 30.4675 15.6074 30.4004C15.5197 30.352 15.4399 30.2863 15.3682 30.1982L15.2949 30.0957L12.2109 25.4541L12.0625 25.2314H2.68457C2.14914 25.2314 1.69473 25.0699 1.30273 24.7402L1.13867 24.5889C0.708903 24.1557 0.500072 23.6489 0.5 23.042V2.69922C0.5 2.08124 0.709749 1.57103 1.1377 1.14062C1.56574 0.710258 2.07223 0.5 2.68457 0.5ZM2.1748 23.542H12.9561L15.5781 27.5068L15.9951 28.1377L16.4121 27.5068L19.0352 23.542H29.8154V2.18945H2.1748V23.542Z" fill="#8D99AE" stroke="#8D99AE"/>
</svg>
